<svg width="61" height="60" viewBox="0 0 61 60" fill="none" xmlns="http://www.w3.org/2000/svg">
<path d="M11.9906 30.7376C11.9906 21.0314 19.5918 13.1019 29.1677 12.5707L31.4226 0H10.7615L0 60H20.6611L22.917 47.4212C19.6698 46.0059 16.9063 43.6733 14.9654 40.7097C13.0245 37.7462 11.9906 34.2804 11.9906 30.7376V30.7376Z" fill="white"/>
<path d="M40.3389 0L37.7917 14.1997C40.9558 15.6526 43.6367 17.9831 45.516 20.9146C47.3954 23.846 48.3944 27.2553 48.3943 30.7376C48.3943 40.3234 40.9802 48.1781 31.5713 48.8823L29.5774 60H50.2385L61 0H40.3389Z" fill="white"/>
<path d="M23.1821 22.9842C23.1821 21.856 24.5225 21.1508 25.5938 21.7154L40.2115 29.4051C41.2828 29.9697 41.2828 31.3791 40.2115 31.9427L25.5938 39.6324C24.5225 40.197 23.1821 39.4918 23.1821 38.3636V22.9842Z" fill="white"/>
</svg>
